<svg width="609" height="95" viewBox="0 0 609 95" fill="none" xmlns="http://www.w3.org/2000/svg">
<path d="M50.632 94.048C43.464 94.048 36.808 92.9387 30.664 90.72C24.6054 88.416 19.3147 85.1733 14.792 80.992C10.3547 76.8107 6.8987 71.8613 4.42404 66.144C1.94937 60.4267 0.712036 54.112 0.712036 47.2C0.712036 40.288 1.94937 33.9733 4.42404 28.256C6.8987 22.5387 10.3547 17.5893 14.792 13.408C19.3147 9.22665 24.6054 6.02665 30.664 3.80799C36.808 1.50399 43.464 0.35199 50.632 0.35199C59.4214 0.35199 67.1867 1.88799 73.928 4.95999C80.7547 8.03199 86.3867 12.4693 90.824 18.272L71.752 35.296C69.1067 31.968 66.1627 29.408 62.92 27.616C59.7627 25.7387 56.1787 24.8 52.168 24.8C49.0107 24.8 46.152 25.312 43.592 26.336C41.032 27.36 38.8134 28.8533 36.936 30.816C35.144 32.7787 33.736 35.168 32.712 37.984C31.688 40.7147 31.176 43.7867 31.176 47.2C31.176 50.6133 31.688 53.728 32.712 56.544C33.736 59.2747 35.144 61.6213 36.936 63.584C38.8134 65.5467 41.032 67.04 43.592 68.064C46.152 69.088 49.0107 69.6 52.168 69.6C56.1787 69.6 59.7627 68.704 62.92 66.912C66.1627 65.0347 69.1067 62.432 71.752 59.104L90.824 76.128C86.3867 81.8453 80.7547 86.2827 73.928 89.44C67.1867 92.512 59.4214 94.048 50.632 94.048Z" fill="white"/>
<path d="M144.647 94.048C137.394 94.048 130.652 92.896 124.423 90.592C118.279 88.288 112.946 85.0453 108.423 80.864C103.9 76.5973 100.359 71.6053 97.799 65.888C95.3244 60.1707 94.087 53.9413 94.087 47.2C94.087 40.3733 95.3244 34.144 97.799 28.512C100.359 22.7947 103.9 17.8453 108.423 13.664C112.946 9.39732 118.279 6.11199 124.423 3.80799C130.652 1.50399 137.394 0.35199 144.647 0.35199C151.986 0.35199 158.727 1.50399 164.871 3.80799C171.015 6.11199 176.348 9.39732 180.871 13.664C185.394 17.8453 188.892 22.7947 191.367 28.512C193.927 34.144 195.207 40.3733 195.207 47.2C195.207 53.9413 193.927 60.1707 191.367 65.888C188.892 71.6053 185.394 76.5973 180.871 80.864C176.348 85.0453 171.015 88.288 164.871 90.592C158.727 92.896 151.986 94.048 144.647 94.048ZM144.647 69.6C147.463 69.6 150.066 69.088 152.455 68.064C154.93 67.04 157.063 65.5893 158.855 63.712C160.732 61.7493 162.183 59.4027 163.207 56.672C164.231 53.856 164.743 50.6987 164.743 47.2C164.743 43.7013 164.231 40.5867 163.207 37.856C162.183 35.04 160.732 32.6933 158.855 30.816C157.063 28.8533 154.93 27.36 152.455 26.336C150.066 25.312 147.463 24.8 144.647 24.8C141.831 24.8 139.186 25.312 136.711 26.336C134.322 27.36 132.188 28.8533 130.311 30.816C128.519 32.6933 127.111 35.04 126.087 37.856C125.063 40.5867 124.551 43.7013 124.551 47.2C124.551 50.6987 125.063 53.856 126.087 56.672C127.111 59.4027 128.519 61.7493 130.311 63.712C132.188 65.5893 134.322 67.04 136.711 68.064C139.186 69.088 141.831 69.6 144.647 69.6Z" fill="white"/>
<path d="M206.171 92V2.39999H249.307C257.67 2.39999 264.88 3.76532 270.939 6.49599C277.083 9.22665 281.819 13.152 285.147 18.272C288.475 23.3067 290.139 29.28 290.139 36.192C290.139 43.104 288.475 49.0773 285.147 54.112C281.819 59.1467 277.083 63.072 270.939 65.888C264.88 68.6187 257.67 69.984 249.307 69.984H222.939L236.379 57.056V92H206.171ZM236.379 60.384L222.939 46.688H247.387C251.568 46.688 254.64 45.7493 256.603 43.872C258.651 41.9947 259.675 39.4347 259.675 36.192C259.675 32.9493 258.651 30.3893 256.603 28.512C254.64 26.6347 251.568 25.696 247.387 25.696H222.939L236.379 12V60.384Z" fill="white"/>
<path d="M300.046 92V2.39999H330.254V68.576H370.702V92H300.046Z" fill="white"/>
<path d="M395.081 93.28C390.302 93.28 386.292 91.744 383.049 88.672C379.806 85.5147 378.185 81.504 378.185 76.64C378.185 71.6907 379.806 67.7227 383.049 64.736C386.292 61.7493 390.302 60.256 395.081 60.256C399.86 60.256 403.87 61.7493 407.113 64.736C410.356 67.7227 411.977 71.6907 411.977 76.64C411.977 81.504 410.356 85.5147 407.113 88.672C403.87 91.744 399.86 93.28 395.081 93.28Z" fill="white"/>
<path d="M541.444 72.8L539.78 39.648L573.572 2.39999H606.468L568.58 44.128L551.812 61.28L541.444 72.8ZM514.436 92V2.39999H544.132V92H514.436ZM573.316 92L546.948 57.184L566.532 36.448L608.26 92H573.316Z" fill="white"/>
<path d="M493.25 12L488.592 23.355L483.934 12H473.105L468.076 24.2575L463.045 12H452.958L447.929 24.2575L442.897 12H432.066L427.408 23.355L422.75 12H416.57L426.322 82.0325H489.675L499.431 12H493.25ZM478.518 16.195L484.939 32.2575L478.147 48.81L471.732 33.175L478.518 16.195ZM458 17.1225L464.416 33.1725L458 48.8075L451.585 33.1725L458 17.1225ZM437.482 16.195L444.268 33.175L437.853 48.81L431.061 32.2575L437.482 16.195ZM426.557 43.5275L427.408 41.395L434.064 58.045L429.957 68.055L426.557 43.5275ZM432.066 82L437.853 67.525L443.639 82H432.066ZM441.644 58.045L447.929 42.325L454.211 58.045L447.929 73.36L441.644 58.045ZM452.214 82L458 67.525L463.786 82H452.214ZM461.789 58.045L468.071 42.325L474.353 58.045L468.071 73.36L461.789 58.045ZM472.361 82L478.147 67.525L483.934 82H472.361ZM486.44 69.02L481.936 58.045L488.592 41.3975L489.665 44.0825L486.44 69.02Z" fill="white"/>
<path d="M494.556 87C494.556 84.24 492.216 82 489.333 82H426.667C423.784 82 421.444 84.24 421.444 87C421.444 89.76 423.784 92 426.667 92H489.333C492.216 92 494.556 89.76 494.556 87ZM505 6.99999C505 4.23749 502.66 1.99999 499.778 1.99999H416.222C413.34 1.99999 411 4.23999 411 6.99999C411 9.76249 413.34 12 416.222 12H499.778C502.66 12 505 9.76249 505 6.99999Z" fill="white"/>
</svg>
